<?xml version="1.0" encoding="UTF-8" standalone="no"?>
<svg
   version="1.1"
   width="468.14099"
   height="148.38901"
   id="svg48"
   sodipodi:docname="good-trip-logo.svg"
   inkscape:version="1.2.2 (b0a8486541, 2022-12-01)"
   xmlns:inkscape="http://www.inkscape.org/namespaces/inkscape"
   xmlns:sodipodi="http://sodipodi.sourceforge.net/DTD/sodipodi-0.dtd"
   xmlns="http://www.w3.org/2000/svg"
   xmlns:svg="http://www.w3.org/2000/svg">
  <defs
     id="defs52" />
  <sodipodi:namedview
     id="namedview50"
     pagecolor="#ffffff"
     bordercolor="#000000"
     borderopacity="0.25"
     inkscape:showpageshadow="2"
     inkscape:pageopacity="0.0"
     inkscape:pagecheckerboard="0"
     inkscape:deskcolor="#d1d1d1"
     showgrid="false"
     inkscape:zoom="2.75"
     inkscape:cx="234.54545"
     inkscape:cy="67.090909"
     inkscape:window-width="1600"
     inkscape:window-height="831"
     inkscape:window-x="0"
     inkscape:window-y="0"
     inkscape:window-maximized="1"
     inkscape:current-layer="svg48" />
  <path
     fill="#0065fc"
     d="m 0.36728194,52.187146 q 0,-4.83399 0.4028316,-10.5835 Q 1.1729452,35.854138 2.1983354,30.068008 3.2237246,24.281871 5.2745036,18.89857 q 2.05078,-5.383301 5.2734344,-9.5947266 3.222653,-4.211425 7.873529,-6.70166 4.650875,-2.49023404 11.096182,-2.49023404 5.12695,0 9.448236,1.97753904 4.321285,1.977539 7.543939,5.34668 3.222653,3.3691396 5.017086,7.8735346 1.794432,4.504394 1.794432,9.411621 0,1.318359 -1.794432,1.647949 -1.794433,0.32959 -2.526854,0.32959 -1.318358,0 -2.526853,-0.219727 Q 45.264708,26.25941 44.67877,24.721324 43.653381,21.864879 42.518128,18.715465 41.382875,15.56605 39.734927,12.965953 38.086978,10.365855 35.669988,8.6812854 33.472725,7.2164414 30.103587,7.2164414 h -0.585938 q -6.152338,0.146484 -9.155266,4.3945306 -3.002927,4.248047 -4.138181,10.327149 -1.135253,6.079101 -1.135253,12.890627 v 12.084958 q 0,3.00293 0.219727,8.71582 0.219727,5.71289 1.062011,12.45117 0.842285,6.73828 2.197264,13.73291 1.35498,6.994635 3.662107,12.744145 2.307127,5.749509 5.52978,9.374999 3.222654,3.62549 7.763666,3.62549 4.028317,0 7.031245,-2.7832 3.002927,-2.78321 5.16357,-7.141119 2.160643,-4.35791 3.662106,-9.74121 1.501464,-5.383305 2.490233,-10.803225 0.988768,-5.41992 1.501464,-10.0708 0.512695,-4.65088 0.805663,-7.65381 -0.805663,-0.0732 -1.538084,-0.0732 -3.442381,0 -6.738277,1.09863 -4.174801,1.24512 -8.349603,1.24512 -0.585936,0 -1.574705,-0.0732 -0.988769,-0.0733 -1.867675,-0.36621 -0.878905,-0.29297 -1.574706,-0.84229 -0.6958,-0.54932 -0.6958,-1.42822 0,-1.68457 3.698728,-2.85645 3.698727,-1.17187 8.422845,-2.01416 4.724118,-0.84228 9.118645,-1.20849 4.394528,-0.36621 5.786129,-0.36621 0.732421,0 2.0874,0.14648 1.354979,0.14648 2.709959,0.51269 1.354979,0.36622 2.307127,1.06202 0.952148,0.6958 0.952148,1.72119 0,0.8789 -0.659179,1.5747 -0.659179,0.69581 -1.647949,1.06202 -0.988768,0.36621 -2.014158,0.51269 -1.025389,0.14649 -1.611327,0.14649 0.07324,1.68457 0.07324,3.44238 0,3.95508 -0.219726,8.42285 -0.36621,6.44531 -1.464843,12.89063 -1.098632,6.445315 -3.369138,12.524415 -2.270505,6.079099 -5.786128,10.729979 -3.515622,4.65088 -8.679193,7.50732 -5.16357,2.85645 -12.268056,2.85645 -7.763666,0 -13.110342,-3.2959 -5.346675,-3.2959 -8.7158134,-8.78906 -3.369139,-5.49317 -5.236812,-12.451169 -1.8676743,-6.95801 -2.6733377,-14.245615 -0.80566326,-7.2876 -0.98876916,-14.17236 -0.1831047,-6.88477 -0.1831047,-12.45117 z M 82.44754,88.661761 q 0,-4.174815 1.062009,-8.605965 1.062009,-4.43115 3.369138,-7.9834 2.307128,-3.55225 5.822755,-5.78613 3.515617,-2.23389 8.496078,-2.23389 3.73535,0 7.87354,1.28174 4.13817,1.28174 7.58055,3.66211 3.44238,2.38037 5.60303,5.82275 2.16064,3.44238 2.16064,7.69043 0,5.126955 -1.86767,9.741215 -1.86768,4.61426 -5.23682,8.239749 -3.36914,3.62549 -7.87352,5.71289 -4.5044,2.0874 -9.777841,2.0874 -4.32127,0 -7.543926,-1.57471 -3.222658,-1.5747 -5.383296,-4.21142 -2.160649,-2.636719 -3.222658,-6.225589 -1.062009,-3.58886 -1.062009,-7.61718 z m 10.766589,-0.14649 q 0,1.31836 0.40283,3.88184 0.40284,2.56347 1.2085,5.01709 0.80566,2.45361 2.0874,4.248039 1.28174,1.79444 3.112791,1.64795 3.88183,-0.43945 6.40869,-2.52685 2.52685,-2.087399 4.10156,-5.090329 1.5747,-3.00293 2.19725,-6.51856 0.62256,-3.51562 0.62256,-6.665045 0,-4.02832 -1.57469,-6.73828 -1.57471,-2.70996 -5.16358,-4.39453 0,0.14648 0.14649,0.14648 0.14648,0 0.14648,-0.14648 l -1.83105,-0.43945 q -0.73243,-0.29297 -1.79444,-0.65918 -1.06201,-0.36621 -2.0874,-1.61133 -2.856441,1.02539 -4.431141,2.63672 -1.57471,1.61133 -2.38037,3.91845 -0.80567,2.30713 -0.98877,5.52979 -0.18311,3.22266 -0.18311,7.763675 z m 43.261931,0.14649 q 0,-4.174815 1.06202,-8.605965 1.062,-4.43115 3.36913,-7.9834 2.30713,-3.55225 5.82275,-5.78613 3.51563,-2.23389 8.49608,-2.23389 3.73536,0 7.87354,1.28174 4.13817,1.28174 7.58056,3.66211 3.44238,2.38037 5.60302,5.82275 2.16064,3.44238 2.16064,7.69043 0,5.126955 -1.86768,9.741215 -1.86766,4.61426 -5.2368,8.239749 -3.36914,3.62549 -7.87353,5.71289 -4.50439,2.0874 -9.77783,2.0874 -4.32128,0 -7.54394,-1.57471 -3.22265,-1.5747 -5.3833,-4.21142 -2.16064,-2.636719 -3.22264,-6.225589 -1.06202,-3.58886 -1.06202,-7.61718 z m 10.7666,-0.14649 q 0,1.31836 0.40283,3.88184 0.40283,2.56347 1.20849,5.01709 0.80567,2.45361 2.0874,4.248039 1.28173,1.79444 3.11279,1.64795 3.88184,-0.43945 6.40869,-2.52685 2.52686,-2.087399 4.10155,-5.090329 1.57471,-3.00293 2.19727,-6.51856 0.62256,-3.51562 0.62256,-6.665045 0,-4.02832 -1.57471,-6.73828 -1.57471,-2.70996 -5.16356,-4.39453 0,0.14648 0.14648,0.14648 0.14649,0 0.14649,-0.14648 l -1.83106,-0.43945 q -0.73242,-0.29297 -1.79443,-0.65918 -1.06201,-0.36621 -2.08741,-1.61133 -2.85644,1.02539 -4.43115,2.63672 -1.57469,1.61133 -2.38036,3.91845 -0.80566,2.30713 -0.98877,5.52979 -0.1831,3.22266 -0.1831,7.763675 z m 44.72676,-2.12402 q 0,-5.712895 1.2085,-10.363775 1.20849,-4.65088 3.84521,-7.87354 2.63672,-3.22265 6.92138,-5.01709 4.28467,-1.79443 10.43701,-1.79443 3.44237,0 7.03124,0.91553 3.58887,0.91552 6.15235,3.40576 0,-1.46485 0.29296,-6.04248 0.29296,-4.57764 0.73242,-10.65674 0.43945,-6.0791 0.91552,-12.744138 0.47608,-6.66504 0.84229,-12.37793 0.36621,-5.712891 0.65918,-9.594727 0.29297,-3.881836 0.43945,-4.3945306 0.73242,-2.124024 2.70996,-2.526856 1.97754,-0.402832 3.73535,-0.402832 4.61425,0 5.67626,1.464844 1.06202,1.464844 1.06202,5.8593746 0,16.040037 -1.42823,31.933595 -1.42822,15.89355 -1.42822,31.93359 0,10.327155 0.40283,20.764165 0.40283,10.437009 2.89307,20.544429 l 0.80566,0.73243 0.43946,1.31836 -1.09864,1.68457 q -2.7832,1.75781 -6.4453,1.75781 h -0.29297 q -3.73535,0 -6.88476,-1.75781 -1.17188,-0.73243 -1.94092,-4.35791 -0.76904,-3.62549 -1.2085,-7.9834 -0.43945,-4.35791 -0.65917,-8.38623 -0.21972,-4.028319 -0.36621,-5.712889 -2.56348,5.859369 -6.99463,10.070799 -4.43115,4.21142 -11.16942,4.21142 -5.27344,0 -8.64257,-2.27051 -3.36914,-2.2705 -5.23682,-5.78613 -1.86767,-3.515619 -2.63671,-7.873529 -0.76905,-4.35791 -0.76905,-8.6792 z m 8.86231,0.43945 q 0,1.68457 0.40283,4.98047 0.40283,3.2959 1.28173,6.5918 0.8789,3.295889 2.45361,5.859369 1.57471,2.56348 4.13818,2.56348 3.44239,-1.68457 6.22558,-5.60303 2.7832,-3.918459 4.79736,-8.642579 2.01416,-4.72412 3.14942,-9.448245 1.13525,-4.72412 1.13525,-8.1665 0,-4.32129 -3.14941,-7.17774 -3.14942,-2.85644 -7.54394,-2.85644 -1.31836,0 -2.67334,0.51269 -1.35498,0.5127 -2.52685,1.17188 -2.70996,2.56347 -4.21143,4.65088 -1.50146,2.0874 -2.2705,4.32129 -0.76904,2.23388 -0.98877,4.94384 -0.21972,2.70996 -0.21972,6.298835 z m 56.00605,-76.464846 q 0,-1.0253896 1.42822,-1.5747066 1.42823,-0.549316 1.86768,-0.549316 l 2.70996,-0.439453 q 2.70996,-0.439454 5.49315,-0.769043 2.78321,-0.32959 5.41993,-0.622559 9.30174,-1.171875 18.6035,-2.307129 9.30175,-1.135254 18.74998,-1.135254 0.73242,0 2.01416,0.07324 1.28174,0.07324 2.56348,0.402832 1.28174,0.32959 2.19726,0.915528 0.91552,0.585937 0.91552,1.611328 0,0.732422 -0.69579,1.281738 -0.6958,0.549317 -1.64795,0.842285 -0.95215,0.292969 -1.94092,0.366211 -0.98877,0.07324 -1.5747,0.07324 h -1.28174 q 0,0 -1.28174,-0.292968 -3.88184,0 -7.6538,0.366211 -3.77197,0.366211 -7.65381,0.659179 1.02539,1.1718746 1.09864,3.2958986 0.0732,2.124023 0.14648,3.662109 0,25.92774 0.36621,51.5625 0.36621,25.634775 0.65918,51.782234 v 0.14648 q -2.41699,2.12403 -4.13818,2.70996 -1.72118,0.58594 -3.479,0.58594 -1.68457,0 -3.40576,-0.62256 -1.72119,-0.62256 -4.13818,-2.67334 v -0.14648 l 0.58594,-57.495124 q 0,-5.71289 -0.14649,-12.59765 -0.14648,-6.88477 -0.14648,-13.952638 0,-7.067877 0.21972,-13.659673 0.21973,-6.591797 1.17188,-11.499024 -4.32129,0.439453 -9.15527,1.31836 -4.1748,0.732421 -7.98339,0.732421 h -1.31835 q -0.29297,0 -1.72119,0.07324 -1.42823,0.07324 -2.92969,-0.07324 -1.50147,-0.146484 -2.70996,-0.585937 -1.2085,-0.439453 -1.2085,-1.464844 z m 72.4123,56.396481 q 0,-3.00293 1.06202,-5.05371 1.062,-2.05078 4.50438,-2.05078 1.31836,0 3.2959,0.40283 1.97754,0.40283 2.27051,2.01416 0.73242,4.32129 0.80566,9.375 0.0732,5.05371 0.5127,9.52149 1.68457,-3.2959 4.32128,-7.1045 2.63671,-3.80859 6.00585,-7.03125 3.36915,-3.22265 7.32421,-5.34668 3.95508,-2.12402 8.05664,-2.12402 0.29297,0 1.09864,0.21973 0.80566,0.21972 1.50145,0.62256 0.6958,0.40283 0.84229,0.91552 0.14648,0.5127 -0.80567,0.95215 -0.29297,0.87891 -1.2451,1.06201 -0.95215,0.18311 -1.68457,0.18311 -0.43946,0 -1.39161,-0.36621 -5.41992,2.85644 -9.2285,7.76367 -3.8086,4.90723 -6.22559,10.87646 -2.41699,5.969245 -3.51562,12.597665 -1.09864,6.628419 -1.09864,12.927249 0,3.14941 -1.42822,3.80859 -1.42821,0.65918 -4.57762,0.65918 -1.68458,0 -3.55225,-0.36621 -1.86768,-0.36621 -2.6001,-2.34375 -1.31836,-4.17481 -2.16064,-9.594729 -0.84228,-5.41992 -1.28173,-11.16943 -0.43945,-5.749515 -0.62256,-11.315925 -0.18311,-5.56641 -0.18311,-10.03418 z m 52.05099,18.750005 q 0,-6.738285 1.5747,-13.220215 1.5747,-6.48194 2.67334,-12.92725 0.29297,-1.68457 2.30713,-2.0874 2.01416,-0.40283 3.40576,-0.40283 2.41699,0 3.88183,0.73242 0.58593,0.29297 1.09863,0.65918 0.51269,0.36621 0.51269,0.95215 0,6.29882 -1.50145,12.30468 -1.50147,6.00586 -1.50147,12.74414 0,2.270515 0.32959,4.284675 0.32959,2.01416 0.62256,3.9917 l 0.43945,2.12402 q 0,0.58594 0.0732,1.0254 0.0732,0.43945 0.21971,1.02539 0,1.31836 -1.86766,1.79443 -1.86768,0.47607 -3.25928,0.47607 -2.12402,0 -3.91846,-0.84228 -1.79443,-0.84229 -2.81982,-2.89307 l -1.02539,-2.12402 q -0.8789,-1.68457 -0.8789,-3.77197 0,-2.08741 -0.36621,-3.84522 z m 4.68749,-44.091805 v -1.3916 q 0,-3.442378 1.72119,-6.152338 1.72119,-2.70996 5.16358,-2.70996 0.43945,0 0.84228,0.0732 0.40283,0.0732 0.84229,0.0732 0.87889,0.14649 2.30711,0.6958 1.42823,0.54932 1.42823,1.7212 v 0.14648 q -0.29297,0.58594 -0.36621,1.2085 -0.0733,0.62255 -0.36621,1.06201 l 0.14648,-0.14649 q -0.87891,2.270508 -1.42822,3.662108 -0.54932,1.3916 -1.20849,2.23389 -0.65918,0.84228 -1.64795,1.2085 -0.98877,0.36621 -2.81982,0.36621 -0.29297,0 -1.02539,-0.0733 -0.73242,-0.0732 -1.57471,-0.29296 -0.84229,-0.21973 -1.42822,-0.58594 -0.58594,-0.36621 -0.58594,-1.09864 z m 27.29515,19.33594 q 0,-3.44238 1.35498,-5.09033 1.35498,-1.64795 4.94384,-1.64795 2.12402,0 3.99169,0.87891 1.86768,0.8789 1.86768,3.73535 0.29297,4.1748 0.29297,8.75244 0,4.57764 0.80566,8.6792 1.83106,-3.00293 4.13819,-6.00586 2.30712,-3.00293 5.09032,-5.34668 2.7832,-2.34375 6.0791,-3.77197 3.2959,-1.42823 7.17772,-1.42823 5.27344,0 8.93555,2.19727 3.6621,2.19727 6.04247,5.71289 2.38037,3.51563 3.44238,7.94678 1.06202,4.43115 1.06202,8.89892 0,6.884775 -2.08741,11.242685 -2.0874,4.35791 -5.52978,6.848139 -3.44238,2.49024 -7.80029,3.36915 -4.35791,0.8789 -8.75243,0.8789 -3.88183,0 -7.25097,-1.50146 -3.36913,-1.50147 -4.68749,-5.676269 0,-1.17188 1.72118,-1.46485 1.72119,-0.29297 2.45361,-0.29297 2.41699,0 3.58887,1.31836 0.8789,1.025389 1.94092,2.087409 1.06201,1.06201 2.23388,1.06201 2.27051,0 4.76074,-1.28174 2.49023,-1.281739 4.57763,-3.369139 2.0874,-2.0874 3.51563,-4.94385 1.42822,-2.85644 1.42822,-5.85937 0,-2.563485 -0.43945,-6.372075 -0.43946,-3.8086 -1.50147,-7.32422 -1.06201,-3.51563 -2.92969,-6.0791 -1.86767,-2.56348 -4.72412,-2.56348 -4.32128,0 -7.80028,3.95508 -3.479,3.95508 -5.78613,9.52148 -2.30712,5.56641 -3.58886,11.572275 -1.28174,6.00586 -1.28174,10.03418 0,4.028319 0.5127,10.180659 0.51269,6.15234 1.06201,12.78076 0.54932,6.62842 1.06201,12.78076 0.5127,6.15235 0.5127,10.18067 0,1.02539 -0.84229,1.64795 -0.84228,0.62256 -2.01416,0.98877 -1.17187,0.36621 -2.38037,0.43945 -1.2085,0.0732 -1.79443,0.0732 -1.97754,0 -4.13819,-0.43945 -2.16063,-0.43945 -2.9663,-2.70996 -1.02539,-3.58887 -1.90429,-10.21729 -0.87891,-6.62841 -1.57471,-14.64843 -0.6958,-8.02002 -1.2085,-16.84571 -0.51269,-8.825679 -0.8789,-17.028809 -0.36621,-8.203125 -0.54932,-15.014645 -0.1831,-6.81153 -0.1831,-10.83985 z"
     id="path44" />
  <path
     fill="#"
     d=""
     id="path46" />
</svg>
